<?xml version="1.0" encoding="utf-8"?><svg xml:space="preserve" viewBox="0 0 100 100" y="0" x="0" xmlns="http://www.w3.org/2000/svg" id="Layer_1" version="1.1" width="200px" height="200px" xmlns:xlink="http://www.w3.org/1999/xlink" style="width:100%;height:100%;background-size:initial;background-repeat-y:initial;background-repeat-x:initial;background-position-y:initial;background-position-x:initial;background-origin:initial;background-color:initial;background-clip:initial;background-attachment:initial;animation-play-state:paused" ><g class="ldl-scale" style="transform-origin:50% 50%;transform:rotate(0deg) scale(0.8, 0.8);animation-play-state:paused" ><path fill="#010101" d="M21.4 36.3v-4.5-1.3c-1.5-2-2.5-4.4-2.5-7.1 0-6.4 5.2-11.6 11.6-11.6S42.1 17 42.1 23.4c0 2.3-.7 4.4-1.8 6.2.1 1.1.2 2.2.2 3.1v.7c0 .4.1.8.1 1.3V35.6c3.4-2.9 5.6-7.3 5.6-12.1 0-8.8-7.1-15.9-15.9-15.9s-15.9 7.1-15.9 15.9c.3 5.2 2.9 9.9 7 12.8z" style="fill:rgb(255, 255, 255);animation-play-state:paused" ></path>
<path d="M92.2 20.9H66v-6.4L51.2 23 66 31.6v-6.4h26.2z" fill="#010101" style="fill:rgb(255, 255, 255);animation-play-state:paused" ></path>
<path fill="#f3e4c7" d="M61.3 80.9c1.4-3.8 3.1-12.8 3.3-17.8 0-.7.1-1 .2-1.4 0-.2.1-.5.1-2.3 0-2.7-1.9-5.2-2.6-5.3-1.4-.1-2.2-.1-2.6 3-.1.6-.1 1.5-.3 2.7l-3.2-.3c.1-1 .1-2.1.3-3.1.1-.9.1-1.4.1-2.5v-2.6c0-1.8-.7-3.9-2.9-4-1.7-.1-3.2.4-3.5 4.1-.2 2-.2 2.5-.3 5v.5h-3.2V54c0-1.1 0-1.7-.1-4.8-.2-5.6-2-5.6-3.1-5.7-2.6-.1-3.2.9-3.7 5.7l-.3 2.8c-.1 1.3-.1 1.3-.1 2.1v.8h-3.2c0-9.7-.5-16.1-.7-19.6 0-.7-.1-1.2-.1-1.6V33c-.3-5.8-.9-10.6-4.5-10.7-.8 0-1.5.2-2 .7-1.8 1.7-1.9 6.3-2 9v.5c-.1 2.8.1 6.4.4 13 .2 4.3.5 9.9.8 17.4l.3 8-3.4-7.2c-.5-1-3.7-6.2-6.1-8.6-3-3-5.9-2.9-7.6-1.8-.6.4.5 2.5 1.5 4.3l1.7 3.4c.8 1.9 1.8 4.6 2.7 7.4 1.5 4.3 3.2 9.3 4.9 12.2.9 1.5 1.5 2.3 2 2.9 1.2 1.6 1.8 2.4 3 7.3H56l-.5-1.9c3.2-1.1 4.4-4 5.8-8z" style="fill:rgb(226, 221, 213);animation-play-state:paused" ></path>
<path fill="#010101" d="M62.5 50.9c-1.1-.1-2 .1-2.7.4-.1-4-2.5-6.9-6-6.9-1.3 0-3.1.2-4.5 1.5-.6-2.5-2-5.1-5.7-5.2-2.1-.2-3.6.4-4.6 1.3-.1-3-.3-5.3-.4-7 0-.6-.1-1.2-.1-1.6v-.7c-.3-5-.8-13.5-7.6-13.7-1.7-.1-3.2.5-4.3 1.5-2.8 2.6-2.9 7.8-3 11.3v.5c-.1 2.9.1 6.6.4 13.2.1 3.1.3 6.8.5 11.4-1.1-1.6-2.3-3.2-3.5-4.3-4.3-4.3-8.8-4-11.5-2.3-3.1 1.9-1.3 5.3.4 8.5.5 1 1.1 2.1 1.6 3.2.8 1.8 1.7 4.4 2.6 7.2 1.5 4.5 3.3 9.6 5.1 12.7 1 1.7 1.7 2.6 2.2 3.3.8 1.1 1.2 1.6 2.2 5.3.1.6.3 1.2.5 1.9l3.1-.8-.3-1.2c-1.2-4.8-1.8-5.7-3-7.3-.5-.6-1.1-1.4-2-2.9-1.7-2.9-3.4-7.8-4.9-12.2-1-2.8-1.9-5.5-2.7-7.4-.5-1.2-1.2-2.4-1.7-3.4-1-1.8-2.1-3.9-1.5-4.3 1.7-1.1 4.6-1.1 7.6 1.8 2.4 2.4 5.7 7.6 6.1 8.6l3.4 7.2-.3-8c-.3-7.5-.6-13.1-.8-17.4-.3-6.6-.5-10.2-.4-13v-.5c.1-2.7.2-7.3 2-9 .5-.5 1.1-.7 2-.7 3.6.1 4.2 4.9 4.5 10.7v.7c0 .4.1 1 .1 1.6.3 3.4.7 9.8.7 19.6h3.2v-.8c0-.7 0-.7.1-2.1l.2-2.5c.5-4.8 1.1-5.8 3.7-5.7 1.1 0 2.8.1 3.1 5.7.1 3.1.1 3.7.1 4.8v2.9h3.2v-.5c.1-2.5.1-3 .3-5 .3-3.7 1.9-4.2 3.5-4.1 2.1 0 2.9 2.2 2.9 4v2.6c0 1.1 0 1.6-.1 2.5-.2 1-.2 2.1-.3 3.1l3.2.3c.1-1.2.2-2.1.3-2.7.4-3.2 1.2-3.1 2.6-3 .8.2 2.7 2.7 2.6 5.3 0 1.8-.1 2.1-.1 2.3-.1.3-.1.6-.2 1.4-.1 5-1.9 13.9-3.3 17.8-1.4 4-2.7 6.9-6 7.8l.5 1.9.3 1.2c1.1-.3 2-.7 2.8-1.2 3.1-2.1 4.4-5.6 5.4-8.6 1.4-4.1 3.3-13.4 3.5-18.7 0-.5 0-.5.1-.7.1-.5.2-1 .2-3.1.4-3.9-2.5-8.3-5.3-8.5z" style="fill:rgb(255, 255, 255);animation-play-state:paused" ></path>
<metadata xmlns:d="https://loading.io/stock/" style="animation-play-state:paused" ><d:name style="animation-play-state:paused" >drag left</d:name>
<d:tags style="animation-play-state:paused" >finger,hand,tap,move,touch,input,drag left,web application</d:tags>
<d:license style="animation-play-state:paused" >pro</d:license>
<d:slug style="animation-play-state:paused" >7hqlf2</d:slug></metadata></g><!-- generated by https://loading.io/ --></svg>